<?xml version="1.0" encoding="UTF-8" standalone="no"?>
<svg
   xmlns:dc="http://purl.org/dc/elements/1.1/"
   xmlns:cc="http://creativecommons.org/ns#"
   xmlns:rdf="http://www.w3.org/1999/02/22-rdf-syntax-ns#"
   xmlns:svg="http://www.w3.org/2000/svg"
   xmlns="http://www.w3.org/2000/svg"
   xmlns:sodipodi="http://sodipodi.sourceforge.net/DTD/sodipodi-0.dtd"
   xmlns:inkscape="http://www.inkscape.org/namespaces/inkscape"
   width="16.12018mm"
   height="5.6419749mm"
   viewBox="0 0 16.12018 5.6419749"
   version="1.1"
   id="svg3098"
   inkscape:version="1.0.1 (3bc2e813f5, 2020-09-07)"
   sodipodi:docname="cc-by-sa-blue.svg">
  <defs
     id="defs3092">
    <clipPath
       clipPathUnits="userSpaceOnUse"
       id="clipPath1847">
      <path
         d="M 0,0 H 1768.819 V 1275.591 H 0 Z"
         id="path1845" />
    </clipPath>
    <clipPath
       clipPathUnits="userSpaceOnUse"
       id="clipPath1867">
      <path
         d="M 0,0 H 1768.819 V 1275.591 H 0 Z"
         id="path1865" />
    </clipPath>
  </defs>
  <sodipodi:namedview
     id="base"
     pagecolor="#ffffff"
     bordercolor="#666666"
     borderopacity="1.0"
     inkscape:pageopacity="0.0"
     inkscape:pageshadow="2"
     inkscape:zoom="0.35"
     inkscape:cx="147.6062"
     inkscape:cy="344.94772"
     inkscape:document-units="mm"
     inkscape:current-layer="layer1"
     inkscape:document-rotation="0"
     showgrid="false"
     fit-margin-top="0"
     fit-margin-left="0"
     fit-margin-right="0"
     fit-margin-bottom="0"
     inkscape:window-width="1267"
     inkscape:window-height="1040"
     inkscape:window-x="182"
     inkscape:window-y="0"
     inkscape:window-maximized="0" />
  <metadata
     id="metadata3095">
    <rdf:RDF>
      <cc:Work
         rdf:about="">
        <dc:format>image/svg+xml</dc:format>
        <dc:type
           rdf:resource="http://purl.org/dc/dcmitype/StillImage" />
        <dc:title></dc:title>
      </cc:Work>
    </rdf:RDF>
  </metadata>
  <g
     inkscape:label="Layer 1"
     inkscape:groupmode="layer"
     id="layer1"
     transform="translate(-66.779192,-56.89925)">
    <g
       id="g1841"
       transform="matrix(0.35277777,0,0,-0.35277777,-446.22061,85.541101)">
      <g
         id="g1843"
         clip-path="url(#clipPath1847)">
        <g
           id="g1849"
           transform="translate(1464.4202,73.9312)">
          <path
             d="m 0,0 c -0.15,0.324 -0.368,0.486 -0.655,0.486 -0.536,0 -0.804,-0.353 -0.804,-1.059 0,-0.708 0.268,-1.06 0.804,-1.06 0.347,0 0.59,0.172 0.729,0.516 l 0.744,-0.387 c -0.347,-0.616 -0.866,-0.924 -1.559,-0.924 -0.534,0 -0.962,0.163 -1.283,0.492 -0.321,0.328 -0.482,0.78 -0.482,1.356 0,0.567 0.162,1.017 0.49,1.35 0.326,0.332 0.741,0.5 1.245,0.5 0.733,0 1.257,-0.29 1.573,-0.867 z m -3.424,0 c -0.148,0.324 -0.371,0.486 -0.668,0.486 -0.526,0 -0.788,-0.353 -0.788,-1.059 0,-0.708 0.262,-1.06 0.788,-1.06 0.347,0 0.594,0.172 0.742,0.516 l 0.728,-0.387 c -0.347,-0.616 -0.867,-0.924 -1.561,-0.924 -0.535,0 -0.964,0.163 -1.286,0.492 -0.323,0.328 -0.482,0.78 -0.482,1.356 0,0.567 0.165,1.017 0.498,1.35 0.331,0.332 0.744,0.5 1.241,0.5 0.733,0 1.258,-0.29 1.576,-0.867 z m -2.561,2.874 c -0.974,-0.982 -1.46,-2.134 -1.46,-3.455 0,-1.321 0.481,-2.462 1.444,-3.426 0.964,-0.963 2.111,-1.444 3.441,-1.444 1.331,0 2.488,0.486 3.471,1.46 0.934,0.904 1.4,2.04 1.4,3.41 0,1.36 -0.474,2.514 -1.422,3.463 -0.949,0.948 -2.098,1.422 -3.449,1.422 -1.35,0 -2.492,-0.477 -3.425,-1.43 M 1.651,3.649 C 2.803,2.497 3.379,1.088 3.379,-0.58 3.379,-2.248 2.812,-3.641 1.681,-4.763 0.48,-5.945 -0.94,-6.535 -2.577,-6.535 c -1.618,0 -3.013,0.585 -4.184,1.758 -1.17,1.169 -1.757,2.57 -1.757,4.197 0,1.629 0.587,3.038 1.757,4.229 1.141,1.152 2.536,1.728 4.184,1.728 1.667,0 3.076,-0.576 4.228,-1.728"
             style="fill:#3555ae;fill-opacity:1;fill-rule:nonzero;stroke:none"
             id="path1851" />
        </g>
        <g
           id="g1853"
           transform="translate(1476.7156,66.9369)">
          <path
             d="m 0,0 h -0.606 v -0.692 h 0.594 c 0.055,0 0.107,0.006 0.156,0.017 0.05,0.011 0.094,0.028 0.132,0.052 0.037,0.026 0.067,0.059 0.089,0.102 0.024,0.041 0.034,0.096 0.034,0.162 0,0.129 -0.036,0.221 -0.109,0.277 C 0.217,-0.027 0.12,0 0,0"
             style="fill:#3555ae;fill-opacity:1;fill-rule:nonzero;stroke:none"
             id="path1855" />
        </g>
      </g>
    </g>
    <g
       id="g1857"
       transform="matrix(0.35277777,0,0,-0.35277777,79.268557,61.653037)">
      <path
         d="M 0,0 -0.328,-0.924 H 0.327 L 0.008,0 Z"
         style="fill:#3555ae;fill-opacity:1;fill-rule:nonzero;stroke:none"
         id="path1859" />
    </g>
    <g
       id="g1861"
       transform="matrix(0.35277777,0,0,-0.35277777,-446.22061,85.541101)">
      <g
         id="g1863"
         clip-path="url(#clipPath1867)">
        <g
           id="g1869"
           transform="translate(1476.9158,67.3867)">
          <path
             d="m 0,0 c 0.064,0.047 0.096,0.124 0.096,0.229 0,0.058 -0.012,0.106 -0.032,0.144 -0.021,0.038 -0.05,0.068 -0.085,0.089 -0.035,0.02 -0.077,0.035 -0.122,0.044 -0.045,0.008 -0.094,0.011 -0.143,0.011 h -0.52 V -0.07 h 0.562 c 0.1,0 0.18,0.023 0.244,0.07"
             style="fill:#3555ae;fill-opacity:1;fill-rule:nonzero;stroke:none"
             id="path1871" />
        </g>
        <g
           id="g1873"
           transform="translate(1499.0127,81.1895)">
          <path
             d="m 0,0 h -43.984 c -0.472,0 -0.856,-0.384 -0.856,-0.855 V -15.8 c 0,-0.107 0.087,-0.193 0.194,-0.193 H 0.662 c 0.106,0 0.193,0.086 0.193,0.193 V -0.855 C 0.855,-0.384 0.472,0 0,0 m -21.416,-14.974 c -0.049,-0.094 -0.117,-0.169 -0.2,-0.228 -0.084,-0.059 -0.179,-0.102 -0.287,-0.131 -0.107,-0.028 -0.217,-0.041 -0.33,-0.041 h -1.225 v 2.52 h 1.188 c 0.12,0 0.23,-0.01 0.329,-0.031 0.099,-0.022 0.185,-0.057 0.255,-0.104 0.07,-0.048 0.126,-0.113 0.165,-0.192 0.039,-0.081 0.058,-0.18 0.058,-0.298 0,-0.126 -0.029,-0.233 -0.087,-0.317 -0.057,-0.085 -0.143,-0.154 -0.257,-0.208 0.156,-0.044 0.273,-0.122 0.35,-0.236 0.076,-0.111 0.115,-0.247 0.115,-0.404 0,-0.127 -0.024,-0.238 -0.074,-0.33 m 1.653,0.566 v -0.967 h -0.555 v 0.982 l -0.926,1.539 h 0.623 l 0.589,-0.996 0.588,0.996 h 0.617 z m 8.967,-0.539 c -0.044,-0.1 -0.112,-0.184 -0.199,-0.256 -0.088,-0.073 -0.199,-0.129 -0.329,-0.169 -0.131,-0.039 -0.282,-0.06 -0.454,-0.06 -0.139,0 -0.274,0.018 -0.404,0.052 -0.131,0.034 -0.247,0.089 -0.347,0.161 -0.099,0.073 -0.179,0.167 -0.238,0.28 -0.058,0.113 -0.087,0.247 -0.084,0.403 h 0.538 c 0,-0.084 0.016,-0.157 0.045,-0.216 0.03,-0.058 0.072,-0.106 0.122,-0.143 0.051,-0.036 0.11,-0.063 0.177,-0.08 0.069,-0.019 0.139,-0.028 0.212,-0.028 0.05,0 0.103,0.004 0.159,0.013 0.056,0.008 0.109,0.024 0.158,0.047 0.05,0.023 0.091,0.056 0.124,0.098 0.032,0.041 0.049,0.093 0.049,0.157 0,0.068 -0.022,0.123 -0.065,0.165 -0.044,0.043 -0.101,0.078 -0.171,0.107 -0.07,0.028 -0.151,0.053 -0.239,0.074 -0.09,0.022 -0.181,0.045 -0.272,0.071 -0.095,0.024 -0.186,0.052 -0.276,0.086 -0.089,0.034 -0.169,0.078 -0.239,0.133 -0.071,0.054 -0.127,0.122 -0.172,0.202 -0.042,0.082 -0.065,0.18 -0.065,0.296 0,0.13 0.028,0.241 0.082,0.338 0.056,0.094 0.129,0.174 0.219,0.237 0.088,0.064 0.19,0.111 0.303,0.142 0.113,0.03 0.226,0.046 0.339,0.046 0.131,0 0.257,-0.015 0.378,-0.045 0.122,-0.03 0.229,-0.078 0.324,-0.143 0.094,-0.066 0.168,-0.15 0.224,-0.253 0.054,-0.103 0.083,-0.226 0.083,-0.373 h -0.538 c -0.006,0.076 -0.021,0.139 -0.047,0.187 -0.028,0.051 -0.064,0.088 -0.108,0.117 -0.044,0.029 -0.096,0.048 -0.154,0.06 -0.057,0.012 -0.119,0.018 -0.187,0.018 -0.044,0 -0.09,-0.005 -0.134,-0.014 -0.044,-0.009 -0.084,-0.026 -0.121,-0.05 -0.036,-0.023 -0.066,-0.053 -0.089,-0.088 -0.024,-0.035 -0.035,-0.081 -0.035,-0.134 0,-0.049 0.009,-0.09 0.027,-0.121 0.019,-0.03 0.057,-0.058 0.112,-0.084 0.054,-0.026 0.131,-0.052 0.229,-0.078 0.097,-0.025 0.224,-0.059 0.383,-0.099 0.047,-0.009 0.112,-0.026 0.195,-0.051 0.083,-0.025 0.166,-0.064 0.248,-0.118 0.084,-0.055 0.154,-0.128 0.215,-0.217 0.06,-0.091 0.09,-0.207 0.09,-0.349 0,-0.115 -0.022,-0.222 -0.068,-0.321 m 2.02,-0.428 -0.19,0.56 H -9.91 l -0.198,-0.56 h -0.559 l 0.955,2.521 h 0.568 l 0.945,-2.521 z m 9.244,4.144 h -31.437 c -1.151,-2.082 -3.371,-3.497 -5.919,-3.497 -2.549,0 -4.768,1.413 -5.92,3.497 h -1.646 v 10.376 c 0,0.258 0.211,0.469 0.47,0.469 H 0 c 0.259,0 0.468,-0.211 0.468,-0.469 z"
             style="fill:#3555ae;fill-opacity:1;fill-rule:nonzero;stroke:none"
             id="path1875" />
        </g>
        <g
           id="g1877"
           transform="translate(1488.843,78.722)">
          <path
             d="M 0,0 C 1.001,0 1.853,-0.354 2.553,-1.059 3.26,-1.759 3.614,-2.613 3.614,-3.62 3.614,-4.636 3.268,-5.479 2.575,-6.149 1.846,-6.869 0.987,-7.231 0,-7.231 c -0.988,0 -1.839,0.358 -2.553,1.072 -0.715,0.713 -1.073,1.56 -1.073,2.539 0,0.978 0.362,1.831 1.083,2.561 C -1.85,-0.354 -1.002,0 0,0 m -0.012,0.794 c -1.223,0 -2.258,-0.426 -3.105,-1.28 -0.87,-0.883 -1.304,-1.928 -1.304,-3.134 0,-1.207 0.434,-2.246 1.304,-3.114 0.869,-0.868 1.904,-1.303 3.105,-1.303 1.216,0 2.27,0.439 3.162,1.315 0.84,0.83 1.26,1.865 1.26,3.102 0,1.236 -0.428,2.281 -1.282,3.134 -0.856,0.854 -1.902,1.28 -3.14,1.28"
             style="fill:#3555ae;fill-opacity:1;fill-rule:nonzero;stroke:none"
             id="path1879" />
        </g>
        <g
           id="g1881"
           transform="translate(1486.8741,75.7244)">
          <path
             d="m 0,0 c 0.176,1.111 0.958,1.704 1.938,1.704 1.41,0 2.269,-1.022 2.269,-2.387 0,-1.329 -0.914,-2.364 -2.291,-2.364 -0.947,0 -1.795,0.583 -1.948,1.727 h 1.111 c 0.034,-0.594 0.419,-0.803 0.97,-0.803 0.626,0 1.035,0.583 1.035,1.474 0,0.935 -0.353,1.43 -1.014,1.43 C 1.586,0.781 1.167,0.604 1.079,0 L 1.403,0.001 0.526,-0.874 -0.348,0.001 Z"
             style="fill:#3555ae;fill-opacity:1;fill-rule:nonzero;stroke:none"
             id="path1883" />
        </g>
        <g
           id="g1885"
           transform="translate(1479.2072,76.1944)">
          <path
             d="M 0,0 C 0,0.157 -0.127,0.285 -0.285,0.285 H -2.092 C -2.249,0.285 -2.376,0.157 -2.376,0 v -1.806 h 0.503 v -2.138 h 1.369 v 2.138 H 0 Z"
             style="fill:#3555ae;fill-opacity:1;fill-rule:nonzero;stroke:none"
             id="path1887" />
        </g>
        <g
           id="g1889"
           transform="translate(1478.0189,77.9528)">
          <path
             d="m 0,0 c 0.341,0 0.618,-0.277 0.618,-0.617 0,-0.342 -0.277,-0.618 -0.618,-0.618 -0.342,0 -0.617,0.276 -0.617,0.618 C -0.617,-0.277 -0.342,0 0,0"
             style="fill:#3555ae;fill-opacity:1;fill-rule:nonzero;stroke:none"
             id="path1891" />
        </g>
        <g
           id="g1893"
           transform="translate(1478.0247,78.722)">
          <path
             d="M 0,0 C 1.002,0 1.853,-0.354 2.553,-1.059 3.26,-1.759 3.614,-2.613 3.614,-3.62 3.614,-4.636 3.268,-5.479 2.575,-6.149 1.846,-6.869 0.987,-7.231 0,-7.231 c -0.988,0 -1.839,0.358 -2.553,1.072 -0.715,0.713 -1.073,1.56 -1.073,2.539 0,0.978 0.362,1.831 1.083,2.561 C -1.85,-0.354 -1.002,0 0,0 m -0.012,0.794 c -1.223,0 -2.258,-0.426 -3.105,-1.28 -0.87,-0.883 -1.304,-1.928 -1.304,-3.134 0,-1.207 0.434,-2.246 1.304,-3.114 0.869,-0.868 1.904,-1.301 3.105,-1.301 1.216,0 2.27,0.437 3.162,1.313 0.84,0.83 1.26,1.865 1.26,3.102 0,1.236 -0.428,2.281 -1.282,3.134 -0.856,0.854 -1.901,1.28 -3.14,1.28"
             style="fill:#3555ae;fill-opacity:1;fill-rule:nonzero;stroke:none"
             id="path1895" />
        </g>
      </g>
    </g>
  </g>
</svg>
