<?xml version="1.0" encoding="UTF-8" standalone="no"?>
<svg
   xmlns:dc="http://purl.org/dc/elements/1.1/"
   xmlns:cc="http://creativecommons.org/ns#"
   xmlns:rdf="http://www.w3.org/1999/02/22-rdf-syntax-ns#"
   xmlns:svg="http://www.w3.org/2000/svg"
   xmlns="http://www.w3.org/2000/svg"
   xmlns:sodipodi="http://sodipodi.sourceforge.net/DTD/sodipodi-0.dtd"
   xmlns:inkscape="http://www.inkscape.org/namespaces/inkscape"
   width="14.027502mm"
   height="4.9096084mm"
   viewBox="0 0 14.027502 4.9096084"
   version="1.1"
   id="svg3201"
   inkscape:version="1.0.1 (3bc2e813f5, 2020-09-07)"
   sodipodi:docname="cc-by-sa.svg">
  <defs
     id="defs3195">
    <clipPath
       clipPathUnits="userSpaceOnUse"
       id="clipPath873">
      <path
         d="M 0,0 H 1190.551 V 841.89 H 0 Z"
         id="path871" />
    </clipPath>
    <clipPath
       clipPathUnits="userSpaceOnUse"
       id="clipPath893">
      <path
         d="M 0,0 H 1190.551 V 841.89 H 0 Z"
         id="path891" />
    </clipPath>
  </defs>
  <sodipodi:namedview
     id="base"
     pagecolor="#ffffff"
     bordercolor="#666666"
     borderopacity="1.0"
     inkscape:pageopacity="0.0"
     inkscape:pageshadow="2"
     inkscape:zoom="2.8"
     inkscape:cx="115.39296"
     inkscape:cy="79.136043"
     inkscape:document-units="mm"
     inkscape:current-layer="layer1"
     inkscape:document-rotation="0"
     showgrid="false"
     fit-margin-top="0"
     fit-margin-left="0"
     fit-margin-right="0"
     fit-margin-bottom="0"
     inkscape:window-width="1267"
     inkscape:window-height="1040"
     inkscape:window-x="52"
     inkscape:window-y="0"
     inkscape:window-maximized="0" />
  <metadata
     id="metadata3198">
    <rdf:RDF>
      <cc:Work
         rdf:about="">
        <dc:format>image/svg+xml</dc:format>
        <dc:type
           rdf:resource="http://purl.org/dc/dcmitype/StillImage" />
        <dc:title></dc:title>
      </cc:Work>
    </rdf:RDF>
  </metadata>
  <g
     inkscape:label="Layer 1"
     inkscape:groupmode="layer"
     id="layer1"
     transform="translate(-189.43938,-50.461863)">
    <g
       id="g867"
       transform="matrix(0.35277777,0,0,-0.35277777,-148.33472,65.371345)">
      <g
         id="g869"
         clip-path="url(#clipPath873)">
        <g
           id="g875"
           transform="translate(966.3868,35.947)">
          <path
             d="m 0,0 c -0.13,0.282 -0.32,0.423 -0.57,0.423 -0.466,0 -0.699,-0.308 -0.699,-0.922 0,-0.615 0.233,-0.922 0.699,-0.922 0.302,0 0.513,0.149 0.634,0.449 l 0.648,-0.337 c -0.302,-0.536 -0.754,-0.804 -1.357,-0.804 -0.465,0 -0.837,0.142 -1.116,0.429 -0.28,0.285 -0.42,0.678 -0.42,1.179 0,0.494 0.141,0.885 0.426,1.175 0.284,0.289 0.645,0.435 1.084,0.435 0.638,0 1.094,-0.252 1.369,-0.754 z m -2.98,0 c -0.129,0.282 -0.322,0.423 -0.581,0.423 -0.457,0 -0.686,-0.308 -0.686,-0.922 0,-0.615 0.229,-0.922 0.686,-0.922 0.302,0 0.517,0.149 0.646,0.449 l 0.633,-0.337 c -0.302,-0.536 -0.754,-0.804 -1.358,-0.804 -0.465,0 -0.839,0.142 -1.119,0.429 -0.281,0.285 -0.42,0.678 -0.42,1.179 0,0.494 0.144,0.885 0.433,1.175 0.289,0.289 0.649,0.435 1.081,0.435 0.638,0 1.095,-0.252 1.371,-0.754 z m -2.228,2.501 c -0.848,-0.855 -1.271,-1.857 -1.271,-3.007 0,-1.149 0.419,-2.142 1.257,-2.981 0.838,-0.838 1.837,-1.256 2.995,-1.256 1.158,0 2.165,0.423 3.02,1.27 0.812,0.786 1.218,1.775 1.218,2.967 0,1.184 -0.413,2.188 -1.237,3.014 -0.826,0.825 -1.826,1.238 -3.001,1.238 -1.176,0 -2.169,-0.416 -2.981,-1.245 M 1.437,3.175 C 2.439,2.173 2.94,0.947 2.94,-0.505 c 0,-1.451 -0.493,-2.664 -1.477,-3.64 -1.046,-1.028 -2.281,-1.542 -3.705,-1.542 -1.409,0 -2.622,0.509 -3.642,1.53 -1.018,1.018 -1.528,2.236 -1.528,3.652 0,1.418 0.51,2.644 1.528,3.68 0.994,1.003 2.207,1.504 3.642,1.504 1.45,0 2.676,-0.501 3.679,-1.504"
             style="fill:#231f20;fill-opacity:1;fill-rule:nonzero;stroke:none"
             id="path877" />
        </g>
        <g
           id="g879"
           transform="translate(977.0862,29.8606)">
          <path
             d="m 0,0 h -0.527 v -0.602 h 0.517 c 0.047,0 0.093,0.005 0.136,0.015 0.043,0.009 0.081,0.024 0.114,0.045 0.033,0.023 0.059,0.051 0.078,0.088 0.02,0.037 0.029,0.084 0.029,0.142 0,0.112 -0.031,0.192 -0.095,0.241 C 0.189,-0.024 0.104,0 0,0"
             style="fill:#231f20;fill-opacity:1;fill-rule:nonzero;stroke:none"
             id="path881" />
        </g>
      </g>
    </g>
    <g
       id="g883"
       transform="matrix(0.35277777,0,0,-0.35277777,200.30758,54.59857)">
      <path
         d="m 0,0 -0.286,-0.805 h 0.57 L 0.006,0 Z"
         style="fill:#231f20;fill-opacity:1;fill-rule:nonzero;stroke:none"
         id="path885" />
    </g>
    <g
       id="g887"
       transform="matrix(0.35277777,0,0,-0.35277777,-148.33472,65.371345)">
      <g
         id="g889"
         clip-path="url(#clipPath893)">
        <g
           id="g895"
           transform="translate(977.2604,30.252)">
          <path
             d="m 0,0 c 0.055,0.041 0.084,0.108 0.084,0.199 0,0.051 -0.01,0.093 -0.029,0.126 -0.018,0.033 -0.043,0.058 -0.073,0.077 -0.031,0.018 -0.067,0.03 -0.106,0.038 -0.04,0.007 -0.082,0.01 -0.125,0.01 h -0.452 v -0.511 h 0.488 c 0.087,0 0.158,0.02 0.213,0.061"
             style="fill:#231f20;fill-opacity:1;fill-rule:nonzero;stroke:none"
             id="path897" />
        </g>
        <g
           id="g899"
           transform="translate(996.4889,42.2631)">
          <path
             d="m 0,0 h -38.275 c -0.41,0 -0.744,-0.334 -0.744,-0.744 v -13.005 c 0,-0.093 0.076,-0.168 0.169,-0.168 H 0.576 c 0.093,0 0.168,0.075 0.168,0.168 V -0.744 C 0.744,-0.334 0.411,0 0,0 m -18.636,-13.03 c -0.043,-0.082 -0.102,-0.147 -0.174,-0.198 -0.073,-0.052 -0.156,-0.09 -0.25,-0.115 -0.093,-0.024 -0.189,-0.036 -0.287,-0.036 h -1.066 v 2.194 h 1.034 c 0.104,0 0.2,-0.009 0.286,-0.027 0.086,-0.02 0.161,-0.05 0.222,-0.091 0.061,-0.042 0.11,-0.098 0.144,-0.167 0.034,-0.07 0.051,-0.156 0.051,-0.259 0,-0.11 -0.026,-0.203 -0.076,-0.276 -0.05,-0.074 -0.125,-0.134 -0.224,-0.181 0.136,-0.039 0.237,-0.107 0.304,-0.205 0.067,-0.097 0.101,-0.215 0.101,-0.352 0,-0.111 -0.022,-0.207 -0.065,-0.287 m 1.439,0.493 v -0.842 h -0.483 v 0.854 l -0.806,1.339 h 0.542 l 0.512,-0.866 0.512,0.866 h 0.537 z m 7.802,-0.47 c -0.038,-0.087 -0.097,-0.16 -0.173,-0.222 -0.077,-0.064 -0.173,-0.112 -0.286,-0.147 -0.114,-0.034 -0.245,-0.053 -0.395,-0.053 -0.121,0 -0.238,0.016 -0.351,0.046 -0.115,0.029 -0.215,0.077 -0.303,0.14 -0.085,0.063 -0.156,0.145 -0.207,0.243 -0.05,0.099 -0.075,0.215 -0.073,0.351 h 0.468 c 0,-0.074 0.014,-0.137 0.04,-0.188 0.026,-0.051 0.062,-0.093 0.106,-0.124 0.044,-0.032 0.095,-0.056 0.154,-0.07 0.06,-0.016 0.121,-0.024 0.184,-0.024 0.043,0 0.09,0.003 0.138,0.011 0.049,0.007 0.096,0.02 0.138,0.041 0.044,0.02 0.08,0.048 0.108,0.085 0.028,0.036 0.043,0.081 0.043,0.137 0,0.058 -0.019,0.107 -0.057,0.143 -0.038,0.038 -0.088,0.068 -0.149,0.093 -0.061,0.025 -0.131,0.046 -0.208,0.064 -0.078,0.02 -0.157,0.04 -0.237,0.063 -0.082,0.02 -0.161,0.045 -0.239,0.074 -0.078,0.03 -0.147,0.068 -0.209,0.116 -0.062,0.047 -0.11,0.106 -0.149,0.176 -0.037,0.071 -0.056,0.156 -0.056,0.257 0,0.113 0.023,0.21 0.071,0.294 0.049,0.083 0.112,0.152 0.19,0.207 0.077,0.056 0.165,0.096 0.264,0.123 0.098,0.026 0.196,0.04 0.295,0.04 0.114,0 0.224,-0.012 0.329,-0.038 0.106,-0.026 0.199,-0.068 0.282,-0.125 0.081,-0.058 0.146,-0.131 0.194,-0.22 0.048,-0.09 0.073,-0.197 0.073,-0.325 h -0.469 c -0.004,0.067 -0.018,0.121 -0.04,0.163 -0.024,0.044 -0.056,0.077 -0.094,0.102 -0.039,0.024 -0.084,0.041 -0.134,0.052 -0.05,0.01 -0.104,0.015 -0.163,0.015 -0.038,0 -0.078,-0.004 -0.116,-0.012 -0.039,-0.008 -0.074,-0.023 -0.105,-0.043 -0.032,-0.02 -0.058,-0.046 -0.078,-0.077 -0.021,-0.03 -0.031,-0.07 -0.031,-0.116 0,-0.043 0.008,-0.079 0.024,-0.106 0.017,-0.026 0.049,-0.051 0.097,-0.073 0.048,-0.023 0.114,-0.045 0.199,-0.068 0.085,-0.022 0.196,-0.051 0.334,-0.086 0.041,-0.008 0.097,-0.023 0.169,-0.044 0.073,-0.022 0.145,-0.056 0.217,-0.103 0.072,-0.048 0.133,-0.111 0.186,-0.189 0.052,-0.079 0.078,-0.18 0.078,-0.303 0,-0.101 -0.019,-0.194 -0.059,-0.28 m 1.758,-0.372 -0.165,0.487 h -0.822 l -0.171,-0.487 h -0.487 l 0.83,2.193 h 0.495 l 0.822,-2.193 z m 8.044,3.606 h -27.356 c -1.002,-1.812 -2.933,-3.043 -5.15,-3.043 -2.219,0 -4.15,1.23 -5.152,3.043 h -1.432 v 9.029 c 0,0.225 0.183,0.408 0.408,0.408 H 0 c 0.225,0 0.407,-0.183 0.407,-0.408 z"
             style="fill:#231f20;fill-opacity:1;fill-rule:nonzero;stroke:none"
             id="path901" />
        </g>
        <g
           id="g903"
           transform="translate(987.6393,40.1159)">
          <path
             d="M 0,0 C 0.871,0 1.612,-0.308 2.222,-0.922 2.837,-1.531 3.145,-2.274 3.145,-3.15 3.145,-4.034 2.844,-4.768 2.241,-5.351 1.606,-5.977 0.859,-6.292 0,-6.292 c -0.86,0 -1.601,0.311 -2.222,0.932 -0.622,0.621 -0.933,1.358 -0.933,2.21 0,0.851 0.314,1.593 0.942,2.228 C -1.61,-0.308 -0.872,0 0,0 m -0.01,0.691 c -1.065,0 -1.965,-0.371 -2.703,-1.114 -0.756,-0.768 -1.134,-1.678 -1.134,-2.727 0,-1.05 0.378,-1.954 1.134,-2.71 0.757,-0.755 1.658,-1.133 2.703,-1.133 1.058,0 1.975,0.381 2.751,1.143 0.731,0.723 1.096,1.624 1.096,2.7 0,1.075 -0.372,1.985 -1.115,2.727 C 1.977,0.32 1.067,0.691 -0.01,0.691"
             style="fill:#231f20;fill-opacity:1;fill-rule:nonzero;stroke:none"
             id="path905" />
        </g>
        <g
           id="g907"
           transform="translate(985.9261,37.5074)">
          <path
             d="m 0,0 c 0.153,0.967 0.834,1.483 1.687,1.483 1.226,0 1.974,-0.889 1.974,-2.077 0,-1.157 -0.796,-2.058 -1.994,-2.058 -0.824,0 -1.562,0.508 -1.695,1.504 h 0.967 c 0.029,-0.517 0.364,-0.699 0.844,-0.699 0.545,0 0.9,0.506 0.9,1.282 C 2.683,0.249 2.377,0.68 1.801,0.68 1.38,0.68 1.016,0.526 0.939,0 L 1.221,0.001 0.458,-0.76 -0.303,0.001 Z"
             style="fill:#231f20;fill-opacity:1;fill-rule:nonzero;stroke:none"
             id="path909" />
        </g>
        <g
           id="g911"
           transform="translate(979.2543,37.9164)">
          <path
             d="M 0,0 C 0,0.137 -0.111,0.248 -0.248,0.248 H -1.82 C -1.957,0.248 -2.068,0.137 -2.068,0 v -1.571 h 0.438 v -1.861 h 1.191 v 1.861 H 0 Z"
             style="fill:#231f20;fill-opacity:1;fill-rule:nonzero;stroke:none"
             id="path913" />
        </g>
        <g
           id="g915"
           transform="translate(978.2203,39.4466)">
          <path
             d="m 0,0 c 0.296,0 0.537,-0.241 0.537,-0.537 0,-0.298 -0.241,-0.538 -0.537,-0.538 -0.297,0 -0.537,0.24 -0.537,0.538 C -0.537,-0.241 -0.297,0 0,0"
             style="fill:#231f20;fill-opacity:1;fill-rule:nonzero;stroke:none"
             id="path917" />
        </g>
        <g
           id="g919"
           transform="translate(978.2253,40.1159)">
          <path
             d="M 0,0 C 0.872,0 1.612,-0.308 2.222,-0.922 2.837,-1.531 3.145,-2.274 3.145,-3.15 3.145,-4.034 2.844,-4.768 2.241,-5.351 1.606,-5.977 0.859,-6.292 0,-6.292 c -0.86,0 -1.601,0.311 -2.222,0.932 -0.622,0.621 -0.933,1.358 -0.933,2.21 0,0.851 0.314,1.593 0.942,2.228 C -1.61,-0.308 -0.872,0 0,0 m -0.01,0.691 c -1.065,0 -1.965,-0.371 -2.703,-1.114 -0.757,-0.768 -1.134,-1.678 -1.134,-2.727 0,-1.05 0.377,-1.954 1.134,-2.71 0.757,-0.755 1.658,-1.132 2.703,-1.132 1.058,0 1.975,0.38 2.751,1.142 0.731,0.723 1.096,1.624 1.096,2.7 0,1.075 -0.372,1.985 -1.115,2.727 C 1.977,0.32 1.068,0.691 -0.01,0.691"
             style="fill:#231f20;fill-opacity:1;fill-rule:nonzero;stroke:none"
             id="path921" />
        </g>
      </g>
    </g>
  </g>
</svg>
