<?xml version="1.0" encoding="UTF-8" standalone="no"?>
<svg
   xmlns:dc="http://purl.org/dc/elements/1.1/"
   xmlns:cc="http://creativecommons.org/ns#"
   xmlns:rdf="http://www.w3.org/1999/02/22-rdf-syntax-ns#"
   xmlns:svg="http://www.w3.org/2000/svg"
   xmlns="http://www.w3.org/2000/svg"
   xmlns:sodipodi="http://sodipodi.sourceforge.net/DTD/sodipodi-0.dtd"
   xmlns:inkscape="http://www.inkscape.org/namespaces/inkscape"
   width="23.750057mm"
   height="10.178344mm"
   viewBox="0 0 23.750057 10.178344"
   version="1.1"
   id="svg1945"
   inkscape:version="1.0.1 (3bc2e813f5, 2020-09-07)"
   sodipodi:docname="odi-logo-blank.svg">
  <defs
     id="defs1939">
    <clipPath
       clipPathUnits="userSpaceOnUse"
       id="clipPath849">
      <path
         d="M 0,0 H 1190.551 V 841.89 H 0 Z"
         id="path847" />
    </clipPath>
  </defs>
  <sodipodi:namedview
     id="base"
     pagecolor="#ffffff"
     bordercolor="#666666"
     borderopacity="1.0"
     inkscape:pageopacity="0.0"
     inkscape:pageshadow="2"
     inkscape:zoom="0.35"
     inkscape:cx="33.453429"
     inkscape:cy="396.3775"
     inkscape:document-units="mm"
     inkscape:current-layer="layer1"
     inkscape:document-rotation="0"
     showgrid="false"
     fit-margin-top="0"
     fit-margin-left="0"
     fit-margin-right="0"
     fit-margin-bottom="0"
     inkscape:window-width="1267"
     inkscape:window-height="1040"
     inkscape:window-x="208"
     inkscape:window-y="0"
     inkscape:window-maximized="0" />
  <metadata
     id="metadata1942">
    <rdf:RDF>
      <cc:Work
         rdf:about="">
        <dc:format>image/svg+xml</dc:format>
        <dc:type
           rdf:resource="http://purl.org/dc/dcmitype/StillImage" />
        <dc:title></dc:title>
      </cc:Work>
    </rdf:RDF>
  </metadata>
  <g
     inkscape:label="Layer 1"
     inkscape:groupmode="layer"
     id="layer1"
     transform="translate(-96.982114,-43.291785)">
    <g
       id="g843"
       transform="matrix(0.35277777,0,0,-0.35277777,86.982028,330.2916)">
      <g
         id="g845"
         clip-path="url(#clipPath849)">
        <g
           id="g851"
           transform="translate(82.2047,813.3278)">
          <path
             d="m 0,0 v -8.946 c -0.685,1.949 -1.773,3.663 -3.246,5.073 -1.298,1.244 -2.856,2.21 -4.629,2.87 -1.803,0.671 -3.79,1.012 -5.907,1.012 L -26.03,0.01 v -8.869 c -0.716,1.794 -1.794,3.442 -3.201,4.849 -2.725,2.725 -6.347,4.225 -10.201,4.225 -3.853,0 -7.476,-1.5 -10.201,-4.225 -2.725,-2.725 -4.225,-6.348 -4.225,-10.201 0,-3.853 1.5,-7.476 4.225,-10.201 2.725,-2.725 6.348,-4.225 10.201,-4.225 3.854,0 7.476,1.5 10.201,4.225 1.407,1.407 2.485,3.055 3.201,4.85 v -8.849 l 12.248,0.002 c 2.117,0 4.104,0.34 5.907,1.011 1.773,0.66 3.331,1.626 4.629,2.87 1.473,1.411 2.561,3.124 3.246,5.074 v -8.968 H 13.465 V 0 Z"
             style="fill:#231f20;fill-opacity:1;fill-rule:nonzero;stroke:none"
             id="path853" />
        </g>
      </g>
    </g>
  </g>
</svg>
